{
  "accessors": [
    {
      "bufferView": 2,
      "componentType": 5126,
      "count": 797,
      "max": [
        1.6637619733810425,
        1.0397980213165283,
        4.639324188232422
      ],
      "min": [
        -1.6637619733810425,
        -1.6357840299606323,
        0.0038449999410659075
      ],
      "type": "VEC3"
    },
    {
      "bufferView": 2,
      "byteOffset": 9564,
      "componentType": 5126,
      "count": 797,
      "max": [
        0.9998539090156555,
        0.9975677728652954,
        0.995172381401062
      ],
      "min": [
        -0.9998539090156555,
        -0.999158501625061,
        -0.9922014474868774
      ],
      "type": "VEC3"
    },
    {
      "bufferView": 1,
      "componentType": 5126,
      "count": 797,
      "max": [
        0.9933170080184937,
        0.9964600205421448
      ],
      "min": [
        0.0032649999484419823,
        0.0087890001013875
      ],
      "type": "VEC2"
    },
    {
      "bufferView": 0,
      "componentType": 5125,
      "count": 4014,
      "type": "SCALAR"
    },
    {
      "bufferView": 2,
      "byteOffset": 19128,
      "componentType": 5126,
      "count": 26,
      "max": [
        0.7908610105514526,
        -0.6945009827613831,
        3.9939770698547363
      ],
      "min": [
        -0.7908610105514526,
        -1.1718369722366333,
        3.60851788520813
      ],
      "type": "VEC3"
    },
    {
      "bufferView": 2,
      "byteOffset": 19440,
      "componentType": 5126,
      "count": 26,
      "max": [
        0.8164028525352478,
        -0.437345951795578,
        0.7405975461006165
      ],
      "min": [
        -0.8164028525352478,
        -0.781026303768158,
        0.377113938331604
      ],
      "type": "VEC3"
    },
    {
      "bufferView": 1,
      "byteOffset": 6376,
      "componentType": 5126,
      "count": 26,
      "max": [
        0.25463899970054626,
        0.9543150067329407
      ],
      "min": [
        -0.0036619999445974827,
        0.7928469777107239
      ],
      "type": "VEC2"
    },
    {
      "bufferView": 0,
      "byteOffset": 16056,
      "componentType": 5125,
      "count": 84,
      "type": "SCALAR"
    },
    {
      "bufferView": 2,
      "byteOffset": 19752,
      "componentType": 5126,
      "count": 40,
      "max": [
        0.9637479782104492,
        -0.5419600009918213,
        3.6219489574432373
      ],
      "min": [
        -0.9637489914894104,
        -1.1583729982376099,
        2.955488920211792
      ],
      "type": "VEC3"
    },
    {
      "bufferView": 2,
      "byteOffset": 20232,
      "componentType": 5126,
      "count": 40,
      "max": [
        0.9886966347694397,
        -0.13165895640850067,
        0.45524293184280396
      ],
      "min": [
        -0.9886966347694397,
        -0.8072279095649719,
        -0.33050909638404846
      ],
      "type": "VEC3"
    },
    {
      "bufferView": 1,
      "byteOffset": 6584,
      "componentType": 5126,
      "count": 40,
      "max": [
        0.8610529899597168,
        0.9600520133972168
      ],
      "min": [
        0.18075600266456604,
        0.7762449979782104
      ],
      "type": "VEC2"
    },
    {
      "bufferView": 0,
      "byteOffset": 16392,
      "componentType": 5125,
      "count": 144,
      "type": "SCALAR"
    },
    {
      "bufferView": 2,
      "byteOffset": 20712,
      "componentType": 5126,
      "count": 30,
      "max": [
        0.4155209958553314,
        -1.2279549837112427,
        3.7219159603118896
      ],
      "min": [
        -0.4155209958553314,
        -1.4033739566802979,
        3.192199945449829
      ],
      "type": "VEC3"
    },
    {
      "bufferView": 2,
      "byteOffset": 21072,
      "componentType": 5126,
      "count": 30,
      "max": [
        0.5023322105407715,
        -0.4642631709575653,
        0.8219673037528992
      ],
      "min": [
        -0.5023322105407715,
        -0.9987735152244568,
        -0.2150338888168335
      ],
      "type": "VEC3"
    },
    {
      "bufferView": 1,
      "byteOffset": 6904,
      "componentType": 5126,
      "count": 30,
      "max": [
        0.2642819881439209,
        0.9943240284919739
      ],
      "min": [
        -0.01431300025433302,
        0.7678220272064209
      ],
      "type": "VEC2"
    },
    {
      "bufferView": 0,
      "byteOffset": 16968,
      "componentType": 5125,
      "count": 126,
      "type": "SCALAR"
    },
    {
      "bufferView": 2,
      "byteOffset": 21432,
      "componentType": 5126,
      "count": 80,
      "max": [
        0.05000000074505806,
        3.028580904006958,
        4.907320022583008
      ],
      "min": [
        -0.05000000074505806,
        0.7170140147209167,
        0.9236289858818054
      ],
      "type": "VEC3"
    },
    {
      "bufferView": 2,
      "byteOffset": 22392,
      "componentType": 5126,
      "count": 80,
      "max": [
        0.9999923706054688,
        0.9998571276664734,
        0.9454676508903503
      ],
      "min": [
        -0.9999923706054688,
        -0.9964934587478638,
        -0.954937219619751
      ],
      "type": "VEC3"
    },
    {
      "bufferView": 1,
      "byteOffset": 7144,
      "componentType": 5126,
      "count": 80,
      "max": [
        0.31445300579071045,
        0.5421450138092041
      ],
      "min": [
        0.00494399992749095,
        0.27053800225257874
      ],
      "type": "VEC2"
    },
    {
      "bufferView": 0,
      "byteOffset": 17472,
      "componentType": 5125,
      "count": 156,
      "type": "SCALAR"
    }
  ],
  "asset": {
    "extras": {
      "author": "Frédéric Cambon (https://sketchfab.com/tribble42)",
      "license": "CC-BY-4.0 (http://creativecommons.org/licenses/by/4.0/)",
      "source": "https://sketchfab.com/3d-models/025-pikachu-e69fbccccf1449acb0d9328ac9bea79d",
      "title": "025 - Pikachu"
    },
    "generator": "Sketchfab-12.66.0",
    "version": "2.0"
  },
  "bufferViews": [
    {
      "buffer": 0,
      "byteLength": 18096,
      "name": "floatBufferViews",
      "target": 34963
    },
    {
      "buffer": 0,
      "byteLength": 7784,
      "byteOffset": 18096,
      "byteStride": 8,
      "name": "floatBufferViews",
      "target": 34962
    },
    {
      "buffer": 0,
      "byteLength": 23352,
      "byteOffset": 25880,
      "byteStride": 12,
      "name": "floatBufferViews",
      "target": 34962
    }
  ],
  "buffers": [
    {
      "byteLength": 49232,
      "uri": "scene.bin"
    }
  ],
  "images": [
    {
      "uri": "textures/mat1_baseColor.png"
    },
    {
      "uri": "textures/mat2_baseColor.png"
    },
    {
      "uri": "textures/mat3_baseColor.png"
    },
    {
      "uri": "textures/mat4_baseColor.png"
    }
  ],
  "materials": [
    {
      "doubleSided": true,
      "name": "mat1",
      "pbrMetallicRoughness": {
        "baseColorTexture": {
          "index": 0
        },
        "metallicFactor": 0.0,
        "roughnessFactor": 0.6
      }
    },
    {
      "doubleSided": true,
      "name": "mat2",
      "pbrMetallicRoughness": {
        "baseColorTexture": {
          "index": 1
        },
        "metallicFactor": 0.0,
        "roughnessFactor": 0.6
      }
    },
    {
      "doubleSided": true,
      "name": "mat3",
      "pbrMetallicRoughness": {
        "baseColorTexture": {
          "index": 2
        },
        "metallicFactor": 0.0,
        "roughnessFactor": 0.6
      }
    },
    {
      "doubleSided": true,
      "name": "mat4",
      "pbrMetallicRoughness": {
        "baseColorTexture": {
          "index": 3
        },
        "metallicFactor": 0.0,
        "roughnessFactor": 0.6
      }
    },
    {
      "doubleSided": true,
      "name": "mat5",
      "pbrMetallicRoughness": {
        "baseColorTexture": {
          "index": 0
        },
        "metallicFactor": 0.0,
        "roughnessFactor": 0.6
      }
    }
  ],
  "meshes": [
    {
      "name": "Object_0",
      "primitives": [
        {
          "attributes": {
            "NORMAL": 1,
            "POSITION": 0,
            "TEXCOORD_0": 2
          },
          "indices": 3,
          "material": 0,
          "mode": 4
        }
      ]
    },
    {
      "name": "Object_1",
      "primitives": [
        {
          "attributes": {
            "NORMAL": 5,
            "POSITION": 4,
            "TEXCOORD_0": 6
          },
          "indices": 7,
          "material": 1,
          "mode": 4
        }
      ]
    },
    {
      "name": "Object_2",
      "primitives": [
        {
          "attributes": {
            "NORMAL": 9,
            "POSITION": 8,
            "TEXCOORD_0": 10
          },
          "indices": 11,
          "material": 2,
          "mode": 4
        }
      ]
    },
    {
      "name": "Object_3",
      "primitives": [
        {
          "attributes": {
            "NORMAL": 13,
            "POSITION": 12,
            "TEXCOORD_0": 14
          },
          "indices": 15,
          "material": 3,
          "mode": 4
        }
      ]
    },
    {
      "name": "Object_4",
      "primitives": [
        {
          "attributes": {
            "NORMAL": 17,
            "POSITION": 16,
            "TEXCOORD_0": 18
          },
          "indices": 19,
          "material": 4,
          "mode": 4
        }
      ]
    }
  ],
  "nodes": [
    {
      "children": [
        1
      ],
      "matrix": [
        1.0,
        0.0,
        0.0,
        0.0,
        0.0,
        2.220446049250313e-16,
        -1.0,
        0.0,
        0.0,
        1.0,
        2.220446049250313e-16,
        0.0,
        0.0,
        0.0,
        0.0,
        1.0
      ],
      "name": "Sketchfab_model"
    },
    {
      "children": [
        2,
        3,
        4,
        5,
        6
      ],
      "name": "Pikachu.obj.cleaner.materialmerger.gles"
    },
    {
      "mesh": 0,
      "name": "Object_2"
    },
    {
      "mesh": 1,
      "name": "Object_3"
    },
    {
      "mesh": 2,
      "name": "Object_4"
    },
    {
      "mesh": 3,
      "name": "Object_5"
    },
    {
      "mesh": 4,
      "name": "Object_6"
    }
  ],
  "samplers": [
    {
      "magFilter": 9729,
      "minFilter": 9987,
      "wrapS": 10497,
      "wrapT": 10497
    }
  ],
  "scene": 0,
  "scenes": [
    {
      "name": "Sketchfab_Scene",
      "nodes": [
        0
      ]
    }
  ],
  "textures": [
    {
      "sampler": 0,
      "source": 0
    },
    {
      "sampler": 0,
      "source": 1
    },
    {
      "sampler": 0,
      "source": 2
    },
    {
      "sampler": 0,
      "source": 3
    }
  ]
}
